<svg width="121" height="33" viewBox="0 0 121 33" fill="none" xmlns="http://www.w3.org/2000/svg">
<path d="M15.5331 7.21069V17.2308C15.5643 18.3846 15.3328 19.5307 14.8555 20.5851C14.0298 19.0844 12.7343 17.8855 11.1611 17.1663C11.1966 16.7872 11.1966 16.4057 11.1611 16.0266V7.21069H15.5331Z" fill="white"/>
<path d="M12.0574 23.4019C11.1767 23.8103 10.2107 24.0091 9.23744 23.9825C7.3096 24.1943 5.35801 24.0038 3.5101 23.4234C2.85001 23.1444 2.26042 22.726 1.78315 22.1978C1.32393 21.7368 0.953592 21.1977 0.690148 20.6066C0.21455 19.5441 -0.0168374 18.3914 0.0124864 17.2308V7.21069H4.3845V16.0266C4.3495 16.4057 4.3495 16.7872 4.3845 17.1663C4.48041 17.9627 4.86882 18.6973 5.47668 19.2319C6.08455 19.7664 6.87001 20.0641 7.68537 20.0691H7.92583C8.89221 20.0971 9.8219 20.4394 10.5695 21.0424C11.317 21.6455 11.8403 22.4752 12.0574 23.4019Z" fill="white"/>
<path d="M15.0085 27.8529C14.3488 29.1884 13.3204 30.3144 12.0409 31.1022C10.7614 31.89 9.28231 32.3078 7.77279 32.3078C6.26328 32.3078 4.78423 31.89 3.50469 31.1022C2.22516 30.3144 1.19678 29.1884 0.537109 27.8529H0.64641L3.72868 26.0897C3.77435 26.1717 3.811 26.2582 3.83798 26.3477C4.19598 27.0748 4.75496 27.688 5.45087 28.1171C6.14678 28.5461 6.95148 28.7737 7.77279 28.7737C8.59411 28.7737 9.39881 28.5461 10.0947 28.1171C10.7906 27.688 11.3496 27.0748 11.7076 26.3477L11.8169 26.1112L14.8992 27.8529H15.0085Z" fill="white"/>
<path d="M30.3324 13.3818V7.21069H34.7044V23.5309H30.3324V17.3383H23.7744V23.5309H19.4023V7.21069H23.7744V13.3818H30.3324Z" fill="white"/>
<path d="M40.6503 5.25397C39.9598 5.23759 39.3022 4.96049 38.8139 4.4801C38.3255 3.9997 38.0438 3.35287 38.0271 2.67369C38.0262 2.32941 38.0954 1.98843 38.2305 1.67085C38.3657 1.35326 38.5641 1.06549 38.8141 0.824496C39.0501 0.578881 39.3348 0.38347 39.6507 0.250331C39.9665 0.117193 40.3067 0.0491531 40.6503 0.0504137C41.0011 0.0445124 41.3492 0.110261 41.6728 0.243501C41.9964 0.376742 42.2884 0.574577 42.5303 0.824496C42.7802 1.06549 42.9786 1.35326 43.1138 1.67085C43.249 1.98843 43.3181 2.32941 43.3172 2.67369C43.3185 3.01167 43.2494 3.34633 43.114 3.65698C42.9786 3.96764 42.78 4.24771 42.5303 4.47988C42.2884 4.7298 41.9964 4.92764 41.6728 5.06088C41.3492 5.19412 41.0011 5.25987 40.6503 5.25397ZM42.8363 23.5309H38.4643V7.21067H42.8363V23.5309Z" fill="white"/>
<path d="M58.685 15.1666C59.4104 15.4807 60.0211 16.0052 60.4351 16.67C60.8492 17.3348 61.0471 18.1081 61.0022 18.8865C61.0291 19.519 60.9138 20.1495 60.6644 20.733C60.415 21.3166 60.0377 21.8388 59.5594 22.2624C58.4006 23.1631 56.9461 23.6145 55.4716 23.531H46.7275V7.21075H54.8813C56.3462 7.12243 57.7931 7.56622 58.9473 8.45788C59.4156 8.89413 59.78 9.4269 60.0143 10.018C60.2486 10.6091 60.3471 11.2438 60.3026 11.8767C60.3255 12.5132 60.1901 13.1455 59.9082 13.7188C59.6263 14.2921 59.2064 14.7891 58.685 15.1666ZM54.313 10.6726H50.7498V13.5969H54.4004C55.6246 13.5969 56.2367 13.1239 56.2367 12.1348C56.2367 11.1457 55.6246 10.6726 54.4004 10.6726H54.313ZM50.6624 19.9831H54.8813C56.1274 19.9831 56.7395 19.4455 56.7395 18.4134C56.7489 18.2078 56.7082 18.0029 56.6208 17.8158C56.5333 17.6288 56.4016 17.4651 56.2367 17.3383C55.8503 17.0449 55.3686 16.8997 54.8813 16.9298H50.7498L50.6624 19.9831Z" fill="white"/>
<path d="M79.8455 17.1017H67.3196C67.5826 18.088 68.2037 18.9455 69.0656 19.512C69.9276 20.0786 70.9706 20.315 71.9977 20.1765C72.7054 20.221 73.4135 20.0955 74.061 19.8108C74.7084 19.5261 75.2757 19.0907 75.7139 18.5423L79.1678 20.499C78.3656 21.6402 77.279 22.5597 76.0122 23.1696C74.7453 23.7795 73.3404 24.0594 71.9321 23.9824C70.7275 24.0298 69.5255 23.8371 68.3985 23.4159C67.2715 22.9946 66.2427 22.3535 65.3741 21.5311C64.5514 20.7251 63.9057 19.7615 63.477 18.6999C63.0483 17.6384 62.8458 16.5016 62.8821 15.36C62.8512 14.2292 63.0521 13.1038 63.4727 12.051C63.8933 10.9982 64.5251 10.0394 65.3304 9.23183C66.1471 8.40406 67.1315 7.75429 68.2198 7.32461C69.3081 6.89493 70.476 6.69493 71.6479 6.73756C72.7661 6.70967 73.8774 6.91787 74.9068 7.34813C75.9363 7.77839 76.86 8.42072 77.6157 9.23183C79.202 10.8846 80.0587 13.0878 79.9985 15.36C79.992 15.9435 79.9408 16.5257 79.8455 17.1017ZM67.2541 13.8333H75.7139C75.5436 12.8687 75.0232 11.9977 74.2493 11.3821C73.4838 10.827 72.5552 10.5326 71.6042 10.5435C70.5781 10.5022 69.5682 10.8055 68.7406 11.4036C67.9689 12.0154 67.4424 12.8762 67.2541 13.8333Z" fill="white"/>
<path d="M92.6556 6.73765C93.7348 6.72703 94.8036 6.94639 95.7885 7.38067C96.7734 7.81494 97.651 8.45383 98.3611 9.25342C99.9579 10.894 100.83 13.0892 100.788 15.3601C100.854 17.6396 99.9964 19.8516 98.4048 21.5097C97.6916 22.3026 96.8124 22.9342 95.8275 23.361C94.8426 23.7879 93.7754 23.9999 92.6993 23.9825C91.6743 24.036 90.6512 23.8472 89.7156 23.4319C88.78 23.0167 87.9592 22.387 87.3217 21.5957V30.0676H82.9497V7.2107H87.3217V9.1244C87.9548 8.33918 88.7686 7.71326 89.696 7.29828C90.6234 6.88329 91.6378 6.69113 92.6556 6.73765ZM88.5677 18.6929C89.4556 19.5139 90.6282 19.9709 91.8468 19.9709C93.0653 19.9709 94.2379 19.5139 95.1258 18.6929C95.5585 18.2519 95.8958 17.7292 96.1175 17.1564C96.3392 16.5835 96.4405 15.9725 96.4155 15.3601C96.4353 14.751 96.327 14.1444 96.0976 13.5783C95.8682 13.0123 95.5224 12.4989 95.082 12.0702C94.2018 11.2346 93.0263 10.7677 91.803 10.7677C90.5798 10.7677 89.4042 11.2346 88.524 12.0702C88.0947 12.5047 87.7591 13.0202 87.5374 13.5855C87.3158 14.1509 87.2127 14.7545 87.2343 15.3601C87.2188 15.9751 87.3288 16.5869 87.5578 17.1593C87.7869 17.7318 88.1303 18.2533 88.5677 18.6929Z" fill="white"/>
<path d="M116.396 9.12444V7.21074H120.768V23.531H116.396V21.5958C115.747 22.3851 114.917 23.0127 113.975 23.4274C113.033 23.8422 112.005 24.0324 110.974 23.9825C109.899 23.9915 108.835 23.7757 107.851 23.3494C106.868 22.9231 105.987 22.296 105.269 21.5098C103.721 19.8307 102.898 17.6253 102.974 15.3601C102.913 13.0983 103.762 10.9043 105.334 9.25345C106.047 8.45719 106.925 7.82058 107.91 7.38658C108.894 6.95259 109.961 6.73131 111.04 6.73769C112.06 6.69808 113.075 6.89323 114.005 7.30758C114.935 7.72194 115.753 8.34406 116.396 9.12444ZM108.482 18.693C108.91 19.1232 109.425 19.4604 109.993 19.6826C110.562 19.9048 111.172 20.0072 111.783 19.9831C112.391 20.0042 112.996 19.9003 113.561 19.6782C114.126 19.456 114.637 19.1205 115.062 18.693C115.507 18.2586 115.855 17.738 116.085 17.1643C116.314 16.5906 116.42 15.9762 116.396 15.3601C116.424 14.75 116.319 14.1411 116.089 13.5739C115.859 13.0066 115.509 12.4941 115.062 12.0703C114.631 11.6306 114.11 11.2862 113.533 11.06C112.957 10.8339 112.338 10.7311 111.718 10.7586C111.105 10.7373 110.494 10.843 109.925 11.069C109.357 11.295 108.843 11.6361 108.417 12.0703C107.987 12.5048 107.652 13.0202 107.43 13.5856C107.208 14.1509 107.105 14.7545 107.127 15.3601C107.114 15.9766 107.228 16.5893 107.461 17.1619C107.693 17.7344 108.041 18.2551 108.482 18.693Z" fill="white"/>
</svg>
