<svg width="177" height="60" viewBox="0 0 177 60" fill="none" xmlns="http://www.w3.org/2000/svg">
<path d="M32.3218 18.1416V30.9332C32.3607 32.4061 32.0725 33.8692 31.4783 35.2153C30.4506 33.2995 28.838 31.769 26.8799 30.8508C26.9241 30.3669 26.9241 29.8799 26.8799 29.396V18.1416H32.3218Z" fill="#303D45"/>
<path d="M27.9957 38.8112C26.8995 39.3325 25.6971 39.5864 24.4856 39.5524C22.086 39.8228 19.6568 39.5796 17.3566 38.8387C16.535 38.4825 15.8011 37.9484 15.2071 37.2741C14.6355 36.6856 14.1745 35.9974 13.8466 35.2428C13.2546 33.8863 12.9666 32.4148 13.0031 30.9332V18.1416H18.445V29.396C18.4015 29.8799 18.4015 30.3669 18.445 30.8508C18.5644 31.8676 19.0479 32.8053 19.8045 33.4878C20.5611 34.1702 21.5388 34.5503 22.5537 34.5565H22.853C24.0559 34.5923 25.2131 35.0293 26.1436 35.7991C27.0741 36.569 27.7254 37.6282 27.9957 38.8112Z" fill="#303D45"/>
<path d="M31.6691 44.4931C30.848 46.198 29.568 47.6354 27.9753 48.6411C26.3826 49.6468 24.5416 50.1801 22.6627 50.1801C20.7838 50.1801 18.9427 49.6468 17.3501 48.6411C15.7574 47.6354 14.4774 46.198 13.6562 44.4931H13.7923L17.6289 42.2422C17.6857 42.3468 17.7313 42.4572 17.7649 42.5716C18.2105 43.4998 18.9063 44.2826 19.7725 44.8303C20.6388 45.378 21.6404 45.6685 22.6627 45.6685C23.685 45.6685 24.6866 45.378 25.5529 44.8303C26.4191 44.2826 27.1148 43.4998 27.5605 42.5716L27.6965 42.2696L31.5331 44.4931H31.6691Z" fill="#1784CC"/>
<path d="M50.7431 26.0197V18.1416H56.185V38.9759H50.7431V31.0704H42.5801V38.9759H37.1382V18.1416H42.5801V26.0197H50.7431Z" fill="#303D45"/>
<path d="M63.586 15.6433C62.7265 15.6224 61.908 15.2686 61.3001 14.6554C60.6922 14.0421 60.3415 13.2164 60.3208 12.3493C60.3197 11.9098 60.4058 11.4745 60.574 11.0691C60.7423 10.6637 60.9892 10.2963 61.3004 9.98866C61.5942 9.6751 61.9486 9.42564 62.3417 9.25568C62.7348 9.08572 63.1583 8.99886 63.586 9.00047C64.0226 8.99293 64.456 9.07687 64.8587 9.24696C65.2615 9.41706 65.625 9.66961 65.926 9.98866C66.2372 10.2963 66.4841 10.6637 66.6523 11.0691C66.8206 11.4745 66.9067 11.9098 66.9056 12.3493C66.9072 12.7808 66.8211 13.208 66.6526 13.6046C66.4841 14.0012 66.2368 14.3587 65.926 14.6551C65.625 14.9742 65.2615 15.2267 64.8587 15.3968C64.456 15.5669 64.0226 15.6508 63.586 15.6433ZM66.307 38.9756H60.865V18.1412H66.307V38.9756Z" fill="#303D45"/>
<path d="M86.0341 28.2974C86.9371 28.6984 87.6972 29.3681 88.2126 30.2167C88.728 31.0654 88.9743 32.0526 88.9184 33.0463C88.9519 33.8537 88.8083 34.6586 88.4979 35.4035C88.1875 36.1485 87.7178 36.8151 87.1225 37.3559C85.6801 38.5058 83.8697 39.082 82.0343 38.9754H71.1504V18.141H81.2996C83.123 18.0283 84.924 18.5948 86.3607 19.7331C86.9436 20.29 87.3971 20.9702 87.6888 21.7247C87.9805 22.4793 88.103 23.2897 88.0477 24.0976C88.0761 24.9101 87.9076 25.7173 87.5567 26.4492C87.2058 27.1811 86.6832 27.8155 86.0341 28.2974ZM80.5922 22.5605H76.157V26.2936H80.701C82.2248 26.2936 82.9867 25.6897 82.9867 24.427C82.9867 23.1643 82.2248 22.5605 80.701 22.5605H80.5922ZM76.0482 34.4462H81.2996C82.8506 34.4462 83.6125 33.7599 83.6125 32.4424C83.6243 32.1798 83.5736 31.9182 83.4648 31.6795C83.3559 31.4407 83.192 31.2317 82.9867 31.0699C82.5057 30.6952 81.9061 30.5099 81.2996 30.5483H76.157L76.0482 34.4462Z" fill="#303D45"/>
<path d="M112.373 30.7682H96.7821C97.1094 32.0274 97.8825 33.1221 98.9554 33.8453C100.028 34.5685 101.327 34.8703 102.605 34.6935C103.486 34.7503 104.367 34.5901 105.173 34.2267C105.979 33.8632 106.685 33.3075 107.231 32.6074L111.53 35.1053C110.531 36.5621 109.179 37.7359 107.602 38.5145C106.025 39.2931 104.276 39.6504 102.523 39.5521C101.024 39.6127 99.5278 39.3667 98.125 38.8289C96.7222 38.2912 95.4417 37.4727 94.3605 36.4229C93.3364 35.3939 92.5327 34.1637 91.9991 32.8086C91.4655 31.4534 91.2135 30.0022 91.2586 28.5448C91.2202 27.1012 91.4702 25.6646 91.9938 24.3206C92.5173 22.9766 93.3037 21.7526 94.306 20.7216C95.3226 19.6649 96.5479 18.8354 97.9026 18.2869C99.2572 17.7384 100.711 17.483 102.17 17.5375C103.561 17.5018 104.945 17.7676 106.226 18.3169C107.507 18.8662 108.657 19.6862 109.598 20.7216C111.572 22.8316 112.639 25.6442 112.564 28.5448C112.556 29.2897 112.492 30.033 112.373 30.7682ZM96.7005 26.5959H107.231C107.019 25.3645 106.371 24.2526 105.408 23.4666C104.455 22.758 103.299 22.3822 102.115 22.3961C100.838 22.3434 99.581 22.7306 98.5508 23.494C97.5903 24.2752 96.9349 25.374 96.7005 26.5959Z" fill="#303D45"/>
<path d="M128.318 17.537C129.661 17.5235 130.992 17.8035 132.218 18.3579C133.444 18.9123 134.536 19.7279 135.42 20.7486C137.407 22.843 138.493 25.6454 138.44 28.5444C138.522 31.4544 137.455 34.2782 135.474 36.395C134.586 37.4072 133.492 38.2134 132.266 38.7583C131.04 39.3033 129.712 39.5739 128.372 39.5517C127.097 39.62 125.823 39.379 124.659 38.8489C123.494 38.3187 122.472 37.515 121.679 36.5048V47.32H116.237V18.1409H121.679V20.5839C122.467 19.5815 123.48 18.7825 124.634 18.2527C125.788 17.7229 127.051 17.4776 128.318 17.537ZM123.23 32.7991C124.335 33.8471 125.794 34.4305 127.311 34.4305C128.828 34.4305 130.288 33.8471 131.393 32.7991C131.931 32.236 132.351 31.5688 132.627 30.8375C132.903 30.1062 133.029 29.3262 132.998 28.5444C133.023 27.7668 132.888 26.9925 132.602 26.2698C132.317 25.5472 131.886 24.8918 131.338 24.3446C130.243 23.2778 128.779 22.6817 127.257 22.6817C125.734 22.6817 124.271 23.2778 123.175 24.3446C122.641 24.8992 122.223 25.5572 121.947 26.279C121.671 27.0007 121.543 27.7713 121.57 28.5444C121.551 29.3295 121.688 30.1105 121.973 30.8413C122.258 31.5721 122.685 32.2378 123.23 32.7991Z" fill="#303D45"/>
<path d="M157.868 20.5846V18.1416H163.31V38.9759H157.868V36.5054C157.06 37.5131 156.028 38.3143 154.856 38.8437C153.683 39.3732 152.403 39.616 151.12 39.5523C149.782 39.5638 148.457 39.2883 147.233 38.7441C146.008 38.1999 144.913 37.3994 144.018 36.3956C142.092 34.2521 141.067 31.4368 141.161 28.545C141.086 25.6576 142.142 22.8568 144.1 20.7493C144.987 19.7328 146.08 18.9201 147.305 18.366C148.53 17.812 149.859 17.5295 151.202 17.5377C152.471 17.4871 153.735 17.7362 154.892 18.2652C156.05 18.7942 157.069 19.5884 157.868 20.5846ZM148.018 32.7997C148.551 33.349 149.191 33.7794 149.899 34.0631C150.607 34.3468 151.366 34.4775 152.127 34.4467C152.883 34.4736 153.637 34.341 154.34 34.0574C155.042 33.7739 155.679 33.3455 156.208 32.7997C156.762 32.2452 157.195 31.5806 157.481 30.8482C157.767 30.1158 157.899 29.3315 157.868 28.545C157.903 27.7662 157.773 26.9889 157.487 26.2647C157.2 25.5406 156.765 24.8862 156.208 24.3452C155.672 23.7839 155.023 23.3443 154.305 23.0556C153.588 22.7668 152.817 22.6357 152.045 22.6708C151.282 22.6435 150.522 22.7785 149.814 23.067C149.106 23.3555 148.467 23.791 147.936 24.3452C147.402 24.8999 146.984 25.5579 146.708 26.2796C146.433 27.0014 146.304 27.7719 146.331 28.545C146.315 29.332 146.457 30.1143 146.746 30.8451C147.036 31.576 147.469 32.2407 148.018 32.7997Z" fill="#303D45"/>
</svg>
