<svg width="24" height="39" viewBox="0 0 24 39" fill="none" xmlns="http://www.w3.org/2000/svg">
<path d="M23.3889 0V15.3737C23.4508 17.1406 23.1072 18.8982 22.3847 20.5111C21.1337 18.2114 19.1755 16.3776 16.8013 15.2822C16.9008 14.7051 16.9475 14.1201 16.9406 13.5344V0H23.3889Z" fill="#303D45"/>
<path d="M18.1611 24.8443C16.8407 25.4592 15.3981 25.7654 13.9423 25.7398C10.9296 25.7398 7.89283 26.0287 5.29333 24.8732C4.30624 24.4347 3.42098 23.7952 2.69383 22.9954C2.01487 22.2749 1.45959 21.4468 1.05052 20.5446C0.349872 18.9131 0.00896107 17.1492 0.0510858 15.3735V0.0142822H6.49938V13.4958C6.49235 14.0894 6.53899 14.6824 6.63873 15.2676C7.11923 17.8724 8.77695 19.5383 11.6071 19.6924H11.8569H11.9626C13.419 19.7433 14.8174 20.2765 15.939 21.2087C17.0606 22.141 17.842 23.4195 18.1611 24.8443Z" fill="#303D45"/>
<path d="M22.6249 31.667C21.6265 33.7119 20.0754 35.435 18.148 36.6402C16.2206 37.8454 13.9943 38.4843 11.7224 38.4843C9.45052 38.4843 7.22424 37.8454 5.29684 36.6402C3.36944 35.435 1.81831 33.7119 0.819885 31.667L1.00728 31.5563L5.6489 28.8696C5.70175 28.9996 5.75461 29.1248 5.81707 29.2452C6.36209 30.3508 7.20484 31.2816 8.25009 31.9324C9.29534 32.5832 10.5014 32.9281 11.732 32.9281C12.9626 32.9281 14.1687 32.5832 15.2139 31.9324C16.2592 31.2816 17.1019 30.3508 17.647 29.2452C17.7046 29.1248 17.7623 29.0044 17.8103 28.8793L22.4375 31.5563L22.6249 31.667Z" fill="#1D9DF2"/>
</svg>