     <?xml version="1.0" standalone="no"?>
<!DOCTYPE svg PUBLIC "-//W3C//DTD SVG 20010904//EN"
 "http://www.w3.org/TR/2001/REC-SVG-20010904/DTD/svg10.dtd">
<svg version="1.0" xmlns="http://www.w3.org/2000/svg"
 width="1024.000000pt" height="1024.000000pt" viewBox="0 0 1024.000000 1024.000000"
 preserveAspectRatio="xMidYMid meet">
<metadata>
Created by potrace 1.14, written by Peter Selinger 2001-2017
</metadata>
<g transform="translate(0.000000,1024.000000) scale(0.100000,-0.100000)"
fill="#000000" stroke="none">
<path d="M3375 8190 l-59 -5 0 -1280 c1 -1227 3 -1361 24 -1485 5 -30 12 -69
15 -87 12 -74 77 -277 118 -371 186 -422 545 -706 992 -785 50 -9 104 -19 120
-22 154 -27 1034 -27 1190 1 173 30 395 107 395 136 0 20 -35 127 -58 178 -25
57 -89 167 -122 209 -37 49 -139 152 -190 193 -107 86 -307 179 -420 195 -19
2 -51 8 -72 13 -20 4 -83 8 -141 9 -244 4 -436 81 -592 237 -113 114 -200 290
-220 452 -3 20 -9 66 -14 102 -5 36 -9 568 -9 1183 0 615 -3 1121 -6 1124 -7
7 -869 10 -951 3z"/>
<path d="M6028 8192 l-48 -3 0 -42 c-2 -1204 -9 -2300 -15 -2327 -6 -34 -6
-36 47 -62 326 -166 590 -410 776 -715 l50 -82 35 92 c64 168 97 313 113 491
11 121 10 2646 -1 2647 -37 2 -919 3 -957 1z"/>
<path d="M4040 3553 c-156 -91 -437 -255 -535 -311 -33 -18 -61 -35 -63 -37
-6 -5 62 -135 104 -201 41 -62 103 -150 139 -194 39 -48 220 -226 260 -255 22
-17 42 -33 45 -36 21 -24 209 -138 310 -187 111 -54 301 -124 370 -136 14 -2
48 -9 75 -15 122 -25 232 -35 405 -35 132 0 316 11 330 19 3 2 29 7 56 11 27
3 52 8 55 10 3 2 19 6 36 8 17 3 61 15 99 27 216 65 379 148 608 309 86 61
257 236 342 350 67 92 176 268 188 306 6 20 2 23 -104 82 -25 13 -70 39 -100
57 -30 18 -71 42 -90 53 -174 99 -427 246 -434 253 -18 16 -25 9 -55 -55 -97
-202 -291 -391 -491 -475 -30 -13 -64 -27 -75 -32 -11 -5 -60 -18 -110 -30
-108 -26 -320 -32 -435 -13 -323 53 -601 259 -741 550 -17 35 -34 64 -38 63
-3 0 -71 -39 -151 -86z"/>
</g>
</svg>
